PathFileType	4	(X/Y/Z)	 s09c0301.trc
DataRate	CameraRate	NumFrames	NumMarkers	Units	OrigDataRate	OrigDataStartFrame	OrigNumFrames
200	200	4	50	mm	200	1751	2000
Frame#	Time	racr			lacr			c7			jug			rlel			rdr			llel			ldr			s2			lic			ric			lasi			rasi			rpsi			lpsi			rgt			lgt			rth1			rth2			rth3			rth4			rlfc			rmfc			rsh1			rsh2			rsh3			rsh4			rlmal			rmmal			rcal			rtoe			rmt5			lth1			lth2			lth4			lth3			llfc			lmfc			llmal			lmmal			lcal			lmt5			lsh1			lsh2			lsh3			lsh4			ltoe			SBIKE			LBIKE			RBIKE			
		X1	Y1	Z1	X2	Y2	Z2	X3	Y3	Z3	X4	Y4	Z4	X5	Y5	Z5	X6	Y6	Z6	X7	Y7	Z7	X8	Y8	Z8	X9	Y9	Z9	X10	Y10	Z10	X11	Y11	Z11	X12	Y12	Z12	X13	Y13	Z13	X14	Y14	Z14	X15	Y15	Z15	X16	Y16	Z16	X17	Y17	Z17	X18	Y18	Z18	X19	Y19	Z19	X20	Y20	Z20	X21	Y21	Z21	X22	Y22	Z22	X23	Y23	Z23	X24	Y24	Z24	X25	Y25	Z25	X26	Y26	Z26	X27	Y27	Z27	X28	Y28	Z28	X29	Y29	Z29	X30	Y30	Z30	X31	Y31	Z31	X32	Y32	Z32	X33	Y33	Z33	X34	Y34	Z34	X35	Y35	Z35	X36	Y36	Z36	X37	Y37	Z37	X38	Y38	Z38	X39	Y39	Z39	X40	Y40	Z40	X41	Y41	Z41	X42	Y42	Z42	X43	Y43	Z43	X44	Y44	Z44	X45	Y45	Z45	X46	Y46	Z46	X47	Y47	Z47	X48	Y48	Z48	X49	Y49	Z49	X50	Y50	Z50	
1751	8.7550	711.958254	1361.665885	-33.181836	728.680484	1335.293586	-384.315781	723.878568	1408.848447	-205.626852	715.778550	1268.491665	-206.756043	632.944095	1105.613334	-1.336516	720.802971	869.742378	-54.702828	597.098391	1097.545798	-478.310389	717.929499	881.814402	-429.103289	250.418662	1185.140052	-237.495896	400.443691	1173.048689	-370.761689	382.984839	1144.692511	-83.100800	421.374883	1109.609216	-345.889332	417.731557	1086.512216	-106.526359	282.520724	1203.064903	-172.136652	283.361491	1224.113982	-281.101574	325.913426	1000.611019	-60.359943	350.796211	1060.754289	-434.652430	373.899384	871.856908	-69.739497	421.102557	798.592142	-79.463798	418.540722	710.217776	-92.007085	450.942285	807.652936	-99.172363	435.687239	619.676931	-122.920449	411.647526	597.978247	-214.482137	385.590530	531.936186	-83.413436	386.901229	442.650218	-92.452981	343.173052	366.387825	-88.009888	409.698011	438.431085	-125.859599	308.927183	268.543258	-83.713056	312.850435	276.798348	-159.133715	229.091322	263.685818	-118.413760	467.802410	146.093480	-129.299427	387.363645	164.716923	-63.059733	432.608044	951.582883	-443.288126	503.316993	904.397461	-436.992810	529.158123	925.174920	-418.183467	543.680548	823.634257	-441.656152	566.666068	728.865686	-426.595351	574.410506	709.353713	-328.849448	226.713877	592.036644	-414.608315	250.300085	587.426598	-342.865144	154.176238	622.541836	-373.318826	233.815985	467.059504	-430.119423	474.712409	690.699061	-443.412344	405.252556	640.483121	-428.362154	316.976041	631.043396	-422.954053	418.319510	617.723061	-399.312983	306.171491	412.030998	-358.798694	-64.543599	853.445710	-238.140474	20.703984	85.030077	-441.938740	21.160816	84.035464	-43.719752	
1752	8.7600	714.890783	1361.665944	-36.235011	725.538168	1335.721412	-388.506727	723.780442	1409.330602	-209.378876	715.918936	1268.919585	-210.150204	635.736078	1106.067125	-1.674007	721.206071	869.371672	-54.675938	593.248618	1096.982273	-479.519715	717.730376	882.766809	-429.115837	250.172412	1184.838974	-233.112740	398.136090	1175.154497	-368.922605	385.683355	1143.690170	-81.370809	419.885905	1111.595375	-345.394287	419.717765	1085.973894	-106.130068	283.041686	1202.637676	-167.660859	282.728463	1224.588686	-274.784143	327.319629	999.469788	-58.782870	348.577721	1063.384244	-431.842015	371.828403	870.697954	-68.828645	417.235757	796.233368	-78.663660	412.180954	707.840460	-90.929628	446.990657	804.437757	-98.725916	427.021356	617.227165	-122.157403	401.811362	595.612483	-213.867405	377.425964	529.723433	-83.046908	379.411536	440.466576	-91.884801	336.174521	363.637777	-87.462479	402.073418	436.530309	-125.358661	302.832009	266.497111	-83.339870	306.908745	273.563346	-158.786457	223.220932	263.039430	-118.499434	458.421166	138.824000	-129.297997	378.503378	159.685120	-63.042078	433.495668	956.449101	-441.266543	505.291682	910.867111	-435.362122	530.680153	932.148163	-416.422600	547.606817	831.346002	-441.223479	573.213091	735.975886	-426.011546	580.851578	716.605315	-328.090225	233.975740	596.439402	-414.639009	257.550753	592.525499	-343.148627	160.494603	625.989080	-373.528424	243.165027	472.157173	-430.264105	481.623385	697.260144	-442.720362	412.402799	646.615669	-427.953796	324.158949	636.792365	-422.747025	425.568635	623.615956	-399.043771	316.280298	418.331295	-358.589244	-64.567193	853.450798	-238.172717	20.702595	85.039002	-441.941227	21.156646	84.045082	-43.728581	
1753	8.7650	717.765576	1361.605927	-39.416191	722.255418	1336.152920	-392.846154	723.680573	1409.754602	-212.837318	716.023244	1269.431396	-213.745975	638.455314	1106.469753	-2.282736	721.528691	869.146629	-54.651875	589.477316	1095.686620	-479.227346	717.479601	884.000831	-429.216417	249.683583	1184.996460	-228.189398	395.786284	1177.222530	-367.002054	388.588833	1142.911546	-79.465784	418.946977	1113.750715	-343.482628	421.605315	1085.421465	-105.856249	283.602787	1202.124811	-163.258163	281.413792	1224.851227	-270.225305	328.791254	998.522911	-57.117407	346.086393	1066.256216	-429.129396	369.963414	869.984376	-67.805815	413.497681	794.422261	-77.706119	406.128775	706.140087	-89.550041	443.170189	801.832341	-98.225347	418.620522	615.357707	-121.179966	391.830265	593.799822	-212.946654	369.426706	527.949587	-82.407312	372.026776	438.587198	-91.146614	329.063254	361.534196	-87.050312	394.614007	434.828314	-124.708103	296.659435	264.570824	-83.142474	300.572570	271.256699	-158.550579	217.240479	262.994345	-118.481246	448.734095	132.220351	-129.097999	369.472772	155.418254	-63.064323	434.312451	961.390982	-439.228397	507.148753	917.505178	-433.638430	532.074475	939.173900	-414.619266	551.155826	838.900131	-439.975257	579.583202	743.331952	-425.404603	587.243686	723.985763	-327.448108	241.384853	600.280460	-414.633767	264.836417	596.988396	-342.804465	167.059276	628.797592	-373.778495	252.790866	476.598315	-430.465193	488.507584	703.786277	-442.063995	419.687360	652.554547	-427.536852	331.467890	642.072367	-422.602547	432.881499	629.540853	-398.655843	326.844357	424.049171	-358.614594	-64.611200	853.466190	-238.176462	20.690187	85.053669	-441.932153	21.148423	84.053517	-43.711775	
1754	8.7700	720.552727	1361.493331	-42.836658	718.845467	1336.715680	-397.363544	723.183170	1410.461227	-215.910096	716.016602	1269.902163	-217.565546	641.070144	1106.872452	-3.134651	721.896935	868.931482	-54.496943	585.635604	1094.702847	-479.338572	717.197496	885.232200	-429.430916	249.307049	1185.090695	-223.258556	393.283744	1179.434096	-365.391097	391.284857	1142.274319	-77.544255	417.777766	1115.516861	-342.343737	423.255123	1084.771263	-105.505202	284.406725	1201.624698	-158.955800	280.237974	1225.441765	-265.521357	330.315692	997.634680	-55.331287	343.616411	1068.716700	-426.615611	368.386149	869.716982	-66.757511	410.062228	792.793248	-76.772379	400.554013	705.147335	-88.271746	439.646021	799.665602	-97.574394	410.629459	613.793812	-119.932834	382.663441	592.537921	-212.288345	361.659071	526.467238	-81.464073	364.635524	437.029383	-90.352690	322.471710	360.005061	-85.898180	387.310544	433.474504	-123.804919	290.162916	263.160835	-82.659075	294.396851	269.420043	-158.167632	210.990292	263.214357	-118.468289	438.713455	126.245677	-128.996344	360.246095	151.606965	-63.036876	435.214810	966.409872	-436.827622	508.964631	924.224575	-432.361623	533.261839	946.193690	-412.806038	554.690497	846.558247	-438.918981	585.502764	751.317696	-425.017554	593.629141	731.431735	-326.614454	249.006712	603.567841	-414.541490	272.319600	600.766111	-342.686896	173.713032	630.853452	-373.936690	262.584753	480.418698	-430.608701	495.363237	710.263729	-441.322294	426.965989	658.328095	-427.138855	338.866016	646.880029	-422.394729	440.367785	635.350478	-398.306123	337.784917	429.386694	-358.835606	-64.664879	853.463477	-238.187680	20.696770	85.057947	-441.918817	21.142385	84.049993	-43.719724	
